# xmcd CD database file
#
# Track frame offsets:
#	150
#	20586
#	34710
#	59850
#	86190
#
# Disc length: 1389 seconds
#
# Revision: 0
# Processed by: cddbd v1.5.2PL0 Copyright (c) Steve Scherf et al.
# Submitted via: CDex 1.70beta2
#
DISCID=42056b05
DTITLE=Divers - Jazzmag n°630 - 10-2011 (1949 Trompettes d'avenir)
DYEAR=2011
DGENRE=Jazz
TTITLE0=Dizzie Gillespie, Miles Davis and Fats Navarro - Overtime
TTITLE1=Dizzie Gillespie - St. Louis Blues
TTITLE2=Miles Davis - Wahoo
TTITLE3=Kenny Dorham - Prince Albert
TTITLE4=Fats Navarro - Stop
EXTD=YEAR: 2011
EXTT0=
EXTT1=
EXTT2=
EXTT3=
EXTT4=
PLAYORDER=
